{
	"asset":{
		"generator":"Khronos glTF Blender I/O v4.3.47",
		"version":"2.0"
	},
	"extensionsUsed":[
		"KHR_materials_specular",
		"KHR_materials_ior"
	],
	"scene":0,
	"scenes":[
		{
			"name":"Scene",
			"nodes":[
				0
			]
		}
	],
	"nodes":[
		{
			"mesh":0,
			"name":"Television_01",
			"translation":[
				-0.036646973341703415,
				-0.015163930132985115,
				-0.014823025092482567
			]
		}
	],
	"materials":[
		{
			"doubleSided":true,
			"extensions":{
				"KHR_materials_specular":{
					"specularColorFactor":[
						2.0,
						2.0,
						2.0
					]
				},
				"KHR_materials_ior":{
					"ior":1.4500000476837158
				}
			},
			"name":"Television_01",
			"normalTexture":{
				"index":0
			},
			"pbrMetallicRoughness":{
				"baseColorTexture":{
					"index":1
				},
				"metallicRoughnessTexture":{
					"index":2
				}
			}
		},
		{
			"doubleSided":true,
			"name":"LayarTV_Utama",
			"pbrMetallicRoughness":{
				"baseColorFactor":[
					0.800000011920929,
					0.800000011920929,
					0.800000011920929,
					1
				],
				"metallicFactor":0,
				"roughnessFactor":0.5
			}
		}
	],
	"meshes":[
		{
			"name":"Cube.021",
			"primitives":[
				{
					"attributes":{
						"POSITION":0,
						"NORMAL":1,
						"TEXCOORD_0":2,
						"COLOR_0":3,
						"COLOR_1":4
					},
					"indices":5,
					"material":0
				},
				{
					"attributes":{
						"POSITION":6,
						"NORMAL":7,
						"TEXCOORD_0":8,
						"COLOR_0":9,
						"COLOR_1":10
					},
					"indices":11,
					"material":1
				}
			]
		}
	],
	"textures":[
		{
			"sampler":0,
			"source":0
		},
		{
			"sampler":0,
			"source":1
		},
		{
			"sampler":0,
			"source":2
		}
	],
	"images":[
		{
			"mimeType":"image/png",
			"name":"Television_01_nor_gl",
			"uri":"Television_01_nor_gl.png"
		},
		{
			"mimeType":"image/jpeg",
			"name":"Television_01_diff",
			"uri":"Television_01_diff.jpg"
		},
		{
			"mimeType":"image/png",
			"name":"Television_01_metallic-Television_01_roughness",
			"uri":"Television_01_metallic-Television_01_roughness.png"
		}
	],
	"accessors":[
		{
			"bufferView":0,
			"componentType":5126,
			"count":1940,
			"max":[
				0.29999998211860657,
				0.4568334221839905,
				0.21244415640830994
			],
			"min":[
				-0.29999998211860657,
				-1.5506739146076143e-05,
				-0.25836652517318726
			],
			"type":"VEC3"
		},
		{
			"bufferView":1,
			"componentType":5126,
			"count":1940,
			"type":"VEC3"
		},
		{
			"bufferView":2,
			"componentType":5126,
			"count":1940,
			"type":"VEC2"
		},
		{
			"bufferView":3,
			"componentType":5121,
			"count":1940,
			"normalized":true,
			"type":"VEC4"
		},
		{
			"bufferView":4,
			"componentType":5123,
			"count":1940,
			"normalized":true,
			"type":"VEC4"
		},
		{
			"bufferView":5,
			"componentType":5123,
			"count":5460,
			"type":"SCALAR"
		},
		{
			"bufferView":6,
			"componentType":5126,
			"count":64,
			"max":[
				0.08372445404529572,
				0.3720010817050934,
				0.19235940277576447
			],
			"min":[
				-0.21452774107456207,
				0.14637881517410278,
				0.17177818715572357
			],
			"type":"VEC3"
		},
		{
			"bufferView":7,
			"componentType":5126,
			"count":64,
			"type":"VEC3"
		},
		{
			"bufferView":8,
			"componentType":5126,
			"count":64,
			"type":"VEC2"
		},
		{
			"bufferView":9,
			"componentType":5121,
			"count":64,
			"normalized":true,
			"type":"VEC4"
		},
		{
			"bufferView":10,
			"componentType":5123,
			"count":64,
			"normalized":true,
			"type":"VEC4"
		},
		{
			"bufferView":11,
			"componentType":5123,
			"count":294,
			"type":"SCALAR"
		}
	],
	"bufferViews":[
		{
			"buffer":0,
			"byteLength":23280,
			"byteOffset":0,
			"target":34962
		},
		{
			"buffer":0,
			"byteLength":23280,
			"byteOffset":23280,
			"target":34962
		},
		{
			"buffer":0,
			"byteLength":15520,
			"byteOffset":46560,
			"target":34962
		},
		{
			"buffer":0,
			"byteLength":7760,
			"byteOffset":62080,
			"target":34962
		},
		{
			"buffer":0,
			"byteLength":15520,
			"byteOffset":69840,
			"target":34962
		},
		{
			"buffer":0,
			"byteLength":10920,
			"byteOffset":85360,
			"target":34963
		},
		{
			"buffer":0,
			"byteLength":768,
			"byteOffset":96280,
			"target":34962
		},
		{
			"buffer":0,
			"byteLength":768,
			"byteOffset":97048,
			"target":34962
		},
		{
			"buffer":0,
			"byteLength":512,
			"byteOffset":97816,
			"target":34962
		},
		{
			"buffer":0,
			"byteLength":256,
			"byteOffset":98328,
			"target":34962
		},
		{
			"buffer":0,
			"byteLength":512,
			"byteOffset":98584,
			"target":34962
		},
		{
			"buffer":0,
			"byteLength":588,
			"byteOffset":99096,
			"target":34963
		}
	],
	"samplers":[
		{
			"magFilter":9729,
			"minFilter":9987
		}
	],
	"buffers":[
		{
			"byteLength":99684,
			"uri":"Television_01_4k.bin"
		}
	]
}
